<?xml version="1.0" encoding="UTF-8"?>
<svg id="uuid-a6ca9074-d220-4d36-96ee-f94f2b65b78b" data-name="レイヤー 2" xmlns="http://www.w3.org/2000/svg" width="438" height="33.2" viewBox="0 0 438 33.2">
  <defs>
    <style>
      .uuid-00d7f6b4-d8f2-4de5-b070-c3586beaa5e3 {
        fill: #fff;
      }
    </style>
  </defs>
  <g id="uuid-1367b7a5-d7d2-4be0-9a89-7e4d8d098ef9" data-name="レイヤー 1">
    <g>
      <g>
        <path class="uuid-00d7f6b4-d8f2-4de5-b070-c3586beaa5e3" d="M298.22,12.55v-5.24h3.77V.99h5.55v6.32h3.07v5.24h-3.07v1.64c1.5,1.29,1.75,1.47,3.07,2.72v7.44c-1.15-1.57-1.71-2.2-3.07-3.74v12.36h-5.55v-9.46c-1.22,2.62-1.85,3.53-3.77,5.31v-8.35c2.24-3.04,2.9-4.54,3.49-7.92h-3.49ZM311.35,19.22v-4.82h6.88v-4.05h-2.76c-.98,1.71-1.78,2.37-4.09,3.28v-5.94c1.22-1.82,1.57-2.8,1.85-5.41h4.43c-.14,1.61-.18,1.85-.42,3.32h.98V1.09h5.38v4.5h6.01v4.75h-6.01v4.05h6.95v4.82h-5.94c2.1,3.07,3.7,4.61,6.43,6.21v6.64c-3.21-1.64-4.92-3.14-7.44-6.64v7.75h-5.38v-7.75c-1.88,2.93-4.5,5.17-7.82,6.77v-6.29c2.72-1.6,5.13-4.09,6.46-6.7h-5.52Z"/>
        <path class="uuid-00d7f6b4-d8f2-4de5-b070-c3586beaa5e3" d="M350.77,6.37c-.38-2.55-.45-2.93-.77-5.38h6.29l.35,3.32.25,2.06h8.83v5.17h-7.99c.87,5.8,1.96,9.78,3.35,12.67,1.01,2.03,1.61,2.41,3.81,2.41.21,0,.63,0,1.12-.04v6.14h-1.12c-3.25,0-5.03-.45-6.46-1.6-3.04-2.41-4.33-6.18-6.77-19.59h-17.18v-5.17h16.31ZM339.74,20.3h-4.92v-5.41h16.13v5.41h-5.27v5.9c2.58-.35,2.97-.42,5.41-.8v5.31c-6,.98-11.52,1.71-16.62,2.2v-5.9l2.65-.1,2.62-.11v-6.49ZM363.65.99c.63,1.47.94,2.2,1.75,4.54h-5.83c-.94-2.62-1.08-3-1.71-4.54h5.8Z"/>
        <path class="uuid-00d7f6b4-d8f2-4de5-b070-c3586beaa5e3" d="M404.77,19.18c3-1.74,6.12-4.5,8.43-7.99h-7.87v-5.52h4.73V.78h5.69v4.89h4.05v4.64c-1.12,1.96-1.78,2.93-3.35,5.13,1.78,1.08,2.13,1.33,4.16,2.8v6.88c-2.1-1.85-3.07-2.58-5.13-3.91v11.85h-5.8v-10.11c-1.82,1.47-2.49,1.93-4.9,3.5v-7.26ZM425.61,27.01v-11.84h-5.04v-5.45h5.04V1.44h6.06v8.28h5.43v5.45h-5.43v11.84h6.33v5.38h-19.77v-5.38h7.38Z"/>
        <g>
          <path class="uuid-00d7f6b4-d8f2-4de5-b070-c3586beaa5e3" d="M395.39,6.05c-3.35-1.88-4.61-2.86-6.08-4.82h-6.25c-4.22,4.15-8.03,6.42-13.37,7.96v5.34c2.34-.52,3.18-.77,5.2-1.47v2.37h21.82v-2.44c1.99.84,3.07,1.22,5.17,1.81v-6.14c-2.23-.52-3.88-1.19-6.49-2.62ZM380.31,10.31c2.27-1.43,3.46-2.3,5.59-4.19,2.27,2.03,3.46,2.94,5.52,4.19h-11.1Z"/>
          <path class="uuid-00d7f6b4-d8f2-4de5-b070-c3586beaa5e3" d="M390.12,24.82l1.09,2.01-.24-.06-9.41.36,2.31-4.36h16.76v-5.1h-29.64v5.1h6.32l-2.32,4.61-4.14.16v5.24l23.31-.9.61,1.31h6.32c-1.26-2.41-2.02-3.73-4.96-8.38h-6.01Z"/>
        </g>
      </g>
      <g>
        <path class="uuid-00d7f6b4-d8f2-4de5-b070-c3586beaa5e3" d="M293.2,13.07v-6.36l-8.51.9V.98h-6.58v22.49s0,0,0,.01c0,4.67,3.32,8.54,7.66,9.29.5.09,1.01.14,1.53.14h5.9v-6.58h-5.9c-1.44,0-2.61-1.29-2.61-2.87v-9.49l8.51-.91Z"/>
        <polygon class="uuid-00d7f6b4-d8f2-4de5-b070-c3586beaa5e3" points="267.91 6.25 259.63 6.25 259.63 12.57 267.91 12.57 267.91 23.26 259.63 25.18 259.63 31.61 267.91 29.69 267.91 32.85 274.48 32.85 274.48 .98 267.91 .98 267.91 6.25"/>
        <path class="uuid-00d7f6b4-d8f2-4de5-b070-c3586beaa5e3" d="M14.2,0H4.56v3.82H0v7.62h4.56v6.63c0,11.43,4.66,12.8,13.81,12.8h12.67v-7.6h-12.65c-4.64,0-4.19-3.25-4.19-6.26v-5.56h9.86c0,3.64-2.07,3.88-6.51,3.88v6.24h4.97c1.9,0,9.17-2.47,9.17-8.52V3.82H14.2V0Z"/>
        <polygon class="uuid-00d7f6b4-d8f2-4de5-b070-c3586beaa5e3" points="55.6 0 46.44 0 46.44 4.34 35.51 4.34 35.51 12.09 46.44 12.09 46.44 17.49 35.51 17.49 35.51 24.98 46.44 24.98 46.44 31.58 55.6 31.58 55.6 24.98 65.64 24.98 65.64 17.49 55.6 17.49 55.6 12.09 65.64 12.09 65.64 4.34 55.6 4.34 55.6 0"/>
        <path class="uuid-00d7f6b4-d8f2-4de5-b070-c3586beaa5e3" d="M91.3,19.18c2.34-4.63,2.77-10.25,3.21-17.17h-24.35v7.89h14.46c0,9.51-8.62,12.15-15.76,12.69v8.99c3.29-.23,10.64-1.21,16.67-6.02,6.75,5.78,12.02,6.02,12.02,6.02v-8.99c-2.64-.24-5.33-1.93-6.24-3.4Z"/>
        <path class="uuid-00d7f6b4-d8f2-4de5-b070-c3586beaa5e3" d="M111.44,6.63c-3.16,1.19-13.75,4.47-13.75,4.47v8.3l10.22-3.12v15.3h9.16V13.44c.07-.03.14-.06.24-.09,3.42-1.16,9.17-3.93,9.17-11.68h-9.24c0,2.09-2.61,3.77-5.79,4.96Z"/>
        <path class="uuid-00d7f6b4-d8f2-4de5-b070-c3586beaa5e3" d="M182.95,1.67c0,2.2-2.61,3.77-5.78,4.96-3.16,1.19-13.76,4.47-13.76,4.47v8.3l10.22-3.12v15.3h9.16V13.44c.07-.03.16-.06.23-.09,3.41-1.16,9.16-3.93,9.16-11.68h-9.23Z"/>
        <path class="uuid-00d7f6b4-d8f2-4de5-b070-c3586beaa5e3" d="M156,13.27V1.65h-8.27v13.68c0,13,7.91,16.25,15.55,16.25v-8.99c-4.26,0-7.28-3.53-7.28-9.32Z"/>
        <path class="uuid-00d7f6b4-d8f2-4de5-b070-c3586beaa5e3" d="M134.71,13.27c0,5.79-3.02,9.32-7.28,9.32v8.99c7.65,0,15.54-3.25,15.54-16.25V1.65h-8.27v11.62Z"/>
        <path class="uuid-00d7f6b4-d8f2-4de5-b070-c3586beaa5e3" d="M212.13,23.36h-12.83c0-8.05,9.16-13.25,11.69-13.25V1.07c-3.49,0-22.01,6.9-22.01,30.5h30.62V14.6h-7.47v8.75Z"/>
        <path class="uuid-00d7f6b4-d8f2-4de5-b070-c3586beaa5e3" d="M252.58,27.27c-1.31,0-3.62-.79-4.84-1.66l-1.73-1.23h8.13v-15.9h-11.03v-1.15h12.81V2.65h-12.81V.8h-6.29v1.85h-12.81v4.68h12.81v1.15h-11.03v15.9h8.13l-1.73,1.23c-1.22.87-3.53,1.66-4.85,1.66h-3.33v5.52h3.33c2.37,0,5.74-1.13,7.84-2.62l1.64-1.16v3.79h6.29v-3.79l1.63,1.16c2.1,1.5,5.47,2.62,7.84,2.62h3.33v-5.52h-3.33ZM236.81,19.97h-5.84v-1.68h5.84v1.68ZM236.81,14.6h-5.84v-1.73h5.84v1.73ZM243.1,12.87h5.84v1.73h-5.84v-1.73ZM243.1,19.97v-1.68h5.84v1.68h-5.84Z"/>
      </g>
    </g>
  </g>
</svg>