<?xml version="1.0" encoding="UTF-8"?>
<svg id="uuid-c56a2503-7689-42fe-aa63-6aa75ea5b9eb" data-name="レイヤー 2" xmlns="http://www.w3.org/2000/svg" width="28.55" height="20" viewBox="0 0 28.55 20">
  <defs>
    <style>
      .uuid-44bcf67d-4eeb-41ef-a310-5f4762abdf5b {
        fill: #fff;
      }
    </style>
  </defs>
  <g id="uuid-558e1278-5a33-4c92-ae2e-41c84c6dbc0b" data-name="レイヤー 1">
    <path class="uuid-44bcf67d-4eeb-41ef-a310-5f4762abdf5b" d="M27.95,3.13c-.33-1.23-1.27-2.19-2.52-2.52-2.21-.6-11.16-.6-11.16-.6,0,0-8.93,0-11.14.6C1.9.94.94,1.9.58,3.13c-.58,2.21-.58,6.86-.58,6.86,0,0,0,4.65.58,6.88.35,1.21,1.31,2.19,2.54,2.52,2.21.6,11.14.6,11.14.6,0,0,8.95,0,11.16-.6,1.25-.33,2.19-1.31,2.52-2.52.6-2.23.6-6.88.6-6.88,0,0,0-4.65-.6-6.86ZM11.43,14.29V5.71l7.4,4.28-7.4,4.3Z"/>
  </g>
</svg>