<?xml version="1.0" encoding="UTF-8"?>
<svg id="uuid-d48a52e3-646b-49c9-94cb-2e260206b98c" data-name="レイヤー 2" xmlns="http://www.w3.org/2000/svg" width="252.15" height="45" xmlns:xlink="http://www.w3.org/1999/xlink" viewBox="0 0 252.15 45">
  <defs>
    <style>
      .uuid-b1a71014-0dfc-4b4e-bdcc-536c9de6caf9 {
        fill: #0073bb;
      }

      .uuid-f7c85399-3385-41ff-8620-b79ddbd74e97 {
        fill: url(#uuid-a30d467e-7002-4836-afdf-ade8280b30a4);
      }

      .uuid-b2e55f5d-4fe6-4c00-832f-1c06db251f1d {
        fill: url(#uuid-34c36f67-38d4-48d0-bc21-63d730997fb9);
      }

      .uuid-a3ac423d-da54-4e8d-a2b5-143c3c45f0bb {
        fill: url(#uuid-becc9d8a-8a50-4bb4-848c-416061631e81);
      }

      .uuid-c2b9e649-c0dd-4f6b-8892-83f4ac6f45fa {
        fill: #333;
      }
    </style>
    <linearGradient id="uuid-34c36f67-38d4-48d0-bc21-63d730997fb9" data-name="名称未設定グラデーション 3" x1="29.29" y1="3.29" x2="42.99" y2="27.02" gradientUnits="userSpaceOnUse">
      <stop offset="0" stop-color="#004d9b"/>
      <stop offset=".1" stop-color="#0054a1"/>
      <stop offset=".25" stop-color="#0067b1"/>
      <stop offset=".32" stop-color="#0073bb"/>
      <stop offset=".64" stop-color="#64ac48"/>
      <stop offset=".64" stop-color="#64ac47"/>
      <stop offset=".78" stop-color="#81b645"/>
      <stop offset=".91" stop-color="#92bd43"/>
      <stop offset="1" stop-color="#99c043"/>
    </linearGradient>
    <linearGradient id="uuid-a30d467e-7002-4836-afdf-ade8280b30a4" data-name="名称未設定グラデーション 3" x1="25.92" y1="5.58" x2="39.62" y2="29.31" xlink:href="#uuid-34c36f67-38d4-48d0-bc21-63d730997fb9"/>
    <linearGradient id="uuid-becc9d8a-8a50-4bb4-848c-416061631e81" data-name="名称未設定グラデーション 3" x1="25.92" y1="5.58" x2="39.62" y2="29.31" xlink:href="#uuid-34c36f67-38d4-48d0-bc21-63d730997fb9"/>
  </defs>
  <g id="uuid-b5859724-c711-4966-bf1f-36e3cb6f7ff2" data-name="レイヤー 1">
    <g>
      <path class="uuid-c2b9e649-c0dd-4f6b-8892-83f4ac6f45fa" d="M252.15,20.47v-3.69l-4.94.52v-3.84h-3.81v13.04s0,0,0,0c0,2.71,1.93,4.95,4.44,5.39.29.05.58.08.89.08h3.42v-3.81h-3.42c-.83,0-1.51-.75-1.51-1.66v-5.5l4.94-.53Z"/>
      <polygon class="uuid-c2b9e649-c0dd-4f6b-8892-83f4ac6f45fa" points="237.48 16.51 232.68 16.51 232.68 20.18 237.48 20.18 237.48 26.38 232.68 27.49 232.68 31.22 237.48 30.1 237.48 31.94 241.3 31.94 241.3 13.46 237.48 13.46 237.48 16.51"/>
      <path class="uuid-c2b9e649-c0dd-4f6b-8892-83f4ac6f45fa" d="M90.38,12.89h-5.59v2.22h-2.65v4.42h2.65v3.84c0,6.63,2.7,7.42,8.01,7.42h7.35v-4.41h-7.34c-2.69,0-2.43-1.89-2.43-3.63v-3.23h5.72c0,2.11-1.2,2.25-3.77,2.25v3.62h2.88c1.1,0,5.32-1.43,5.32-4.94v-5.34h-10.14v-2.22Z"/>
      <polygon class="uuid-c2b9e649-c0dd-4f6b-8892-83f4ac6f45fa" points="114.39 12.89 109.07 12.89 109.07 15.41 102.74 15.41 102.74 19.9 109.07 19.9 109.07 23.03 102.74 23.03 102.74 27.38 109.07 27.38 109.07 31.2 114.39 31.2 114.39 27.38 120.21 27.38 120.21 23.03 114.39 23.03 114.39 19.9 120.21 19.9 120.21 15.41 114.39 15.41 114.39 12.89"/>
      <path class="uuid-c2b9e649-c0dd-4f6b-8892-83f4ac6f45fa" d="M135.09,24.01c1.36-2.68,1.61-5.94,1.86-9.96h-14.12v4.57h8.38c0,5.52-5,7.05-9.14,7.36v5.21c1.91-.14,6.17-.7,9.66-3.49,3.91,3.35,6.97,3.49,6.97,3.49v-5.21c-1.53-.14-3.09-1.12-3.62-1.97Z"/>
      <path class="uuid-c2b9e649-c0dd-4f6b-8892-83f4ac6f45fa" d="M146.76,16.73c-1.83.69-7.97,2.59-7.97,2.59v4.81l5.93-1.81v8.87h5.31v-10.52s.08-.04.14-.05c1.98-.67,5.31-2.28,5.31-6.77h-5.36c0,1.21-1.51,2.19-3.36,2.88Z"/>
      <path class="uuid-c2b9e649-c0dd-4f6b-8892-83f4ac6f45fa" d="M188.23,13.86c0,1.27-1.51,2.19-3.35,2.88-1.83.69-7.98,2.59-7.98,2.59v4.81l5.93-1.81v8.87h5.31v-10.52s.09-.04.14-.05c1.98-.67,5.31-2.28,5.31-6.77h-5.35Z"/>
      <path class="uuid-c2b9e649-c0dd-4f6b-8892-83f4ac6f45fa" d="M172.6,20.58v-6.74h-4.79v7.93c0,7.54,4.59,9.42,9.01,9.42v-5.21c-2.47,0-4.22-2.05-4.22-5.4Z"/>
      <path class="uuid-c2b9e649-c0dd-4f6b-8892-83f4ac6f45fa" d="M160.26,20.58c0,3.36-1.75,5.4-4.22,5.4v5.21c4.43,0,9.01-1.88,9.01-9.42v-7.93h-4.79v6.74Z"/>
      <path class="uuid-c2b9e649-c0dd-4f6b-8892-83f4ac6f45fa" d="M205.14,26.44h-7.44c0-4.67,5.31-7.68,6.78-7.68v-5.24c-2.03,0-12.76,4-12.76,17.69h17.75v-9.84h-4.33v5.08Z"/>
      <path class="uuid-c2b9e649-c0dd-4f6b-8892-83f4ac6f45fa" d="M228.6,28.71c-.76,0-2.1-.46-2.81-.97l-1-.72h4.71v-9.22h-6.4v-.67h7.43v-2.71h-7.43v-1.07h-3.65v1.07h-7.43v2.71h7.43v.67h-6.4v9.22h4.71l-1.01.72c-.71.5-2.05.97-2.81.97h-1.93v3.2h1.93c1.38,0,3.33-.65,4.55-1.52l.95-.68v2.2h3.65v-2.19l.95.67c1.22.87,3.17,1.52,4.55,1.52h1.93v-3.2h-1.93ZM219.45,24.47h-3.39v-.97h3.39v.97ZM219.45,21.36h-3.39v-1h3.39v1ZM223.1,20.35h3.39v1h-3.39v-1ZM223.1,24.47v-.97h3.39v.97h-3.39Z"/>
    </g>
    <g>
      <g>
        <path class="uuid-b1a71014-0dfc-4b4e-bdcc-536c9de6caf9" d="M4.03,41.4l-1.35-.2c-1.24-.15-1.24-.46-1.24-.6,0-.49.76-.67,1.47-.67,1.47,0,1.82.53,1.96.92v.04s1.15-.37,1.15-.37l-.02-.04c-.14-.39-.56-1.56-3.07-1.56-1.75,0-2.71.62-2.71,1.76,0,.89.75,1.49,2.1,1.67l1.37.19c.55.07,1.2.24,1.2.67s-.68.75-1.62.75c-1.43,0-1.87-.53-2.1-1l-.02-.03-1.16.36v.04c.49,1.56,2.61,1.68,3.24,1.68,1.82,0,2.86-.69,2.86-1.9,0-.93-.68-1.48-2.08-1.7Z"/>
        <polygon class="uuid-b1a71014-0dfc-4b4e-bdcc-536c9de6caf9" points="8.65 42.39 12.11 42.39 12.11 41.34 8.65 41.34 8.65 40.1 12.66 40.1 12.66 39.05 7.44 39.05 7.44 44.86 12.76 44.86 12.76 43.81 8.65 43.81 8.65 42.39"/>
        <polygon class="uuid-b1a71014-0dfc-4b4e-bdcc-536c9de6caf9" points="20.15 39.05 18.42 39.05 15.31 41.66 15.31 39.05 14.1 39.05 14.1 44.86 15.31 44.86 15.31 43.06 16.48 42.08 18.82 44.86 20.4 44.86 17.36 41.36 20.15 39.05"/>
        <rect class="uuid-b1a71014-0dfc-4b4e-bdcc-536c9de6caf9" x="21.47" y="39.05" width="1.21" height="5.81"/>
        <path class="uuid-b1a71014-0dfc-4b4e-bdcc-536c9de6caf9" d="M28.1,41.4l-1.35-.2c-1.24-.15-1.24-.46-1.24-.6,0-.49.76-.67,1.47-.67,1.47,0,1.82.53,1.96.92v.04s1.15-.37,1.15-.37l-.02-.04c-.14-.39-.56-1.56-3.07-1.56-1.75,0-2.71.62-2.71,1.76,0,.89.75,1.49,2.1,1.67l1.37.19c.55.07,1.2.24,1.2.67s-.68.75-1.62.75c-1.43,0-1.87-.53-2.1-1l-.02-.03-1.16.36v.04c.49,1.56,2.61,1.68,3.24,1.68,1.82,0,2.86-.69,2.86-1.9,0-.93-.68-1.48-2.08-1.7Z"/>
        <path class="uuid-b1a71014-0dfc-4b4e-bdcc-536c9de6caf9" d="M36.38,42.28c0,1.47-.95,1.67-1.88,1.67s-1.88-.2-1.88-1.67v-3.23h-1.21v3.31c0,1.75,1.04,2.64,3.08,2.64s3.08-.89,3.08-2.64v-3.31h-1.21v3.23Z"/>
        <rect class="uuid-b1a71014-0dfc-4b4e-bdcc-536c9de6caf9" x="39.21" y="39.05" width="1.21" height="5.81"/>
        <polygon class="uuid-b1a71014-0dfc-4b4e-bdcc-536c9de6caf9" points="49.77 41.31 46.01 41.31 46.01 39.05 44.81 39.05 44.81 44.86 46.01 44.86 46.01 42.4 49.77 42.4 49.77 44.86 50.97 44.86 50.97 39.05 49.77 39.05 49.77 41.31"/>
        <polygon class="uuid-b1a71014-0dfc-4b4e-bdcc-536c9de6caf9" points="53.79 42.39 57.25 42.39 57.25 41.34 53.79 41.34 53.79 40.1 57.81 40.1 57.81 39.05 52.58 39.05 52.58 44.86 57.9 44.86 57.9 43.81 53.79 43.81 53.79 42.39"/>
        <rect class="uuid-b1a71014-0dfc-4b4e-bdcc-536c9de6caf9" x="59.42" y="39.05" width="1.21" height="5.81"/>
        <polygon class="uuid-b1a71014-0dfc-4b4e-bdcc-536c9de6caf9" points="67.36 39.05 65.57 43.22 63.83 39.08 63.82 39.05 62.24 39.05 62.24 44.86 63.32 44.86 63.32 40.66 65.09 44.83 65.1 44.86 66.05 44.86 67.82 40.66 67.82 44.86 68.91 44.86 68.91 39.05 67.36 39.05"/>
      </g>
      <g>
        <path class="uuid-b2e55f5d-4fe6-4c00-832f-1c06db251f1d" d="M27.3,20.43v-7.49c0-.42.3-.95.67-1.16l5.82-3.36c.37-.21.97-.21,1.34,0l6.49,3.75,6.49-3.75c.37-.21.37-.56,0-.77L35.12.16c-.37-.21-.97-.21-1.34,0l-12.97,7.49c-.37.21-.67.73-.67,1.16v6.72c0,.42.3.95.67,1.16l6.49,3.75Z"/>
        <path class="uuid-f7c85399-3385-41ff-8620-b79ddbd74e97" d="M41.61,12.17v7.49c0,.42-.3.95-.67,1.16l-5.82,3.36c-.37.21-.97.21-1.34,0l-6.49-3.75-6.49,3.75c-.37.21-.37.56,0,.77l12.98,7.49c.37.21.97.21,1.34,0l12.98-7.49c.37-.21.67-.73.67-1.16v-6.72c0-.42-.3-.95-.67-1.16l-6.49-3.75Z"/>
        <path class="uuid-b2e55f5d-4fe6-4c00-832f-1c06db251f1d" d="M27.3,20.43v-7.49c0-.42.3-.95.67-1.16l5.82-3.36c.37-.21.97-.21,1.34,0l6.49,3.75,6.49-3.75c.37-.21.37-.56,0-.77L35.12.16c-.37-.21-.97-.21-1.34,0l-12.97,7.49c-.37.21-.67.73-.67,1.16v6.72c0,.42.3.95.67,1.16l6.49,3.75Z"/>
        <path class="uuid-a3ac423d-da54-4e8d-a2b5-143c3c45f0bb" d="M41.61,12.17v7.49c0,.42-.3.95-.67,1.16l-5.82,3.36c-.37.21-.97.21-1.34,0l-6.49-3.75-6.49,3.75c-.37.21-.37.56,0,.77l12.98,7.49c.37.21.97.21,1.34,0l12.98-7.49c.37-.21.67-.73.67-1.16v-6.72c0-.42-.3-.95-.67-1.16l-6.49-3.75Z"/>
      </g>
    </g>
  </g>
</svg>